<svg xmlns="http://www.w3.org/2000/svg" viewBox="0 0 49 49" shape-rendering="crispEdges">
<title>Any-amount UPI QR</title>
<desc>upi://pay?pa=d.entranchi@ybl&amp;pn=Dakshayani%20Enterprises&amp;cu=INR&amp;tn=Quotation%20Payment</desc>
<rect width="100%" height="100%" fill="#fff"/><path d="M4 4h1v1h-1zM5 4h1v1h-1zM6 4h1v1h-1zM7 4h1v1h-1zM8 4h1v1h-1zM9 4h1v1h-1zM10 4h1v1h-1zM12 4h1v1h-1zM15 4h1v1h-1zM17 4h1v1h-1zM18 4h1v1h-1zM20 4h1v1h-1zM21 4h1v1h-1zM24 4h1v1h-1zM29 4h1v1h-1zM31 4h1v1h-1zM35 4h1v1h-1zM38 4h1v1h-1zM39 4h1v1h-1zM40 4h1v1h-1zM41 4h1v1h-1zM42 4h1v1h-1zM43 4h1v1h-1zM44 4h1v1h-1zM4 5h1v1h-1zM10 5h1v1h-1zM12 5h1v1h-1zM13 5h1v1h-1zM14 5h1v1h-1zM15 5h1v1h-1zM17 5h1v1h-1zM22 5h1v1h-1zM23 5h1v1h-1zM25 5h1v1h-1zM26 5h1v1h-1zM29 5h1v1h-1zM30 5h1v1h-1zM32 5h1v1h-1zM33 5h1v1h-1zM35 5h1v1h-1zM36 5h1v1h-1zM38 5h1v1h-1zM44 5h1v1h-1zM4 6h1v1h-1zM6 6h1v1h-1zM7 6h1v1h-1zM8 6h1v1h-1zM10 6h1v1h-1zM12 6h1v1h-1zM13 6h1v1h-1zM14 6h1v1h-1zM15 6h1v1h-1zM17 6h1v1h-1zM23 6h1v1h-1zM24 6h1v1h-1zM26 6h1v1h-1zM28 6h1v1h-1zM29 6h1v1h-1zM30 6h1v1h-1zM31 6h1v1h-1zM33 6h1v1h-1zM34 6h1v1h-1zM36 6h1v1h-1zM38 6h1v1h-1zM40 6h1v1h-1zM41 6h1v1h-1zM42 6h1v1h-1zM44 6h1v1h-1zM4 7h1v1h-1zM6 7h1v1h-1zM7 7h1v1h-1zM8 7h1v1h-1zM10 7h1v1h-1zM13 7h1v1h-1zM15 7h1v1h-1zM17 7h1v1h-1zM18 7h1v1h-1zM20 7h1v1h-1zM22 7h1v1h-1zM28 7h1v1h-1zM30 7h1v1h-1zM31 7h1v1h-1zM32 7h1v1h-1zM35 7h1v1h-1zM38 7h1v1h-1zM40 7h1v1h-1zM41 7h1v1h-1zM42 7h1v1h-1zM44 7h1v1h-1zM4 8h1v1h-1zM6 8h1v1h-1zM7 8h1v1h-1zM8 8h1v1h-1zM10 8h1v1h-1zM12 8h1v1h-1zM13 8h1v1h-1zM14 8h1v1h-1zM16 8h1v1h-1zM18 8h1v1h-1zM19 8h1v1h-1zM20 8h1v1h-1zM23 8h1v1h-1zM25 8h1v1h-1zM27 8h1v1h-1zM32 8h1v1h-1zM34 8h1v1h-1zM35 8h1v1h-1zM38 8h1v1h-1zM40 8h1v1h-1zM41 8h1v1h-1zM42 8h1v1h-1zM44 8h1v1h-1zM4 9h1v1h-1zM10 9h1v1h-1zM13 9h1v1h-1zM15 9h1v1h-1zM17 9h1v1h-1zM18 9h1v1h-1zM19 9h1v1h-1zM20 9h1v1h-1zM21 9h1v1h-1zM22 9h1v1h-1zM25 9h1v1h-1zM26 9h1v1h-1zM27 9h1v1h-1zM28 9h1v1h-1zM30 9h1v1h-1zM33 9h1v1h-1zM34 9h1v1h-1zM36 9h1v1h-1zM38 9h1v1h-1zM44 9h1v1h-1zM4 10h1v1h-1zM5 10h1v1h-1zM6 10h1v1h-1zM7 10h1v1h-1zM8 10h1v1h-1zM9 10h1v1h-1zM10 10h1v1h-1zM12 10h1v1h-1zM14 10h1v1h-1zM16 10h1v1h-1zM18 10h1v1h-1zM20 10h1v1h-1zM22 10h1v1h-1zM24 10h1v1h-1zM26 10h1v1h-1zM28 10h1v1h-1zM30 10h1v1h-1zM32 10h1v1h-1zM34 10h1v1h-1zM36 10h1v1h-1zM38 10h1v1h-1zM39 10h1v1h-1zM40 10h1v1h-1zM41 10h1v1h-1zM42 10h1v1h-1zM43 10h1v1h-1zM44 10h1v1h-1zM14 11h1v1h-1zM17 11h1v1h-1zM19 11h1v1h-1zM20 11h1v1h-1zM24 11h1v1h-1zM28 11h1v1h-1zM29 11h1v1h-1zM30 11h1v1h-1zM36 11h1v1h-1zM4 12h1v1h-1zM7 12h1v1h-1zM8 12h1v1h-1zM9 12h1v1h-1zM10 12h1v1h-1zM11 12h1v1h-1zM12 12h1v1h-1zM13 12h1v1h-1zM17 12h1v1h-1zM23 12h1v1h-1zM31 12h1v1h-1zM32 12h1v1h-1zM33 12h1v1h-1zM34 12h1v1h-1zM36 12h1v1h-1zM37 12h1v1h-1zM40 12h1v1h-1zM42 12h1v1h-1zM43 12h1v1h-1zM44 12h1v1h-1zM5 13h1v1h-1zM6 13h1v1h-1zM8 13h1v1h-1zM9 13h1v1h-1zM12 13h1v1h-1zM18 13h1v1h-1zM22 13h1v1h-1zM23 13h1v1h-1zM26 13h1v1h-1zM27 13h1v1h-1zM29 13h1v1h-1zM30 13h1v1h-1zM31 13h1v1h-1zM35 13h1v1h-1zM37 13h1v1h-1zM39 13h1v1h-1zM40 13h1v1h-1zM41 13h1v1h-1zM42 13h1v1h-1zM43 13h1v1h-1zM4 14h1v1h-1zM5 14h1v1h-1zM9 14h1v1h-1zM10 14h1v1h-1zM14 14h1v1h-1zM18 14h1v1h-1zM19 14h1v1h-1zM20 14h1v1h-1zM21 14h1v1h-1zM22 14h1v1h-1zM24 14h1v1h-1zM25 14h1v1h-1zM26 14h1v1h-1zM27 14h1v1h-1zM28 14h1v1h-1zM29 14h1v1h-1zM31 14h1v1h-1zM32 14h1v1h-1zM34 14h1v1h-1zM38 14h1v1h-1zM41 14h1v1h-1zM42 14h1v1h-1zM13 15h1v1h-1zM16 15h1v1h-1zM18 15h1v1h-1zM21 15h1v1h-1zM22 15h1v1h-1zM27 15h1v1h-1zM33 15h1v1h-1zM39 15h1v1h-1zM40 15h1v1h-1zM41 15h1v1h-1zM43 15h1v1h-1zM44 15h1v1h-1zM5 16h1v1h-1zM6 16h1v1h-1zM7 16h1v1h-1zM8 16h1v1h-1zM10 16h1v1h-1zM11 16h1v1h-1zM12 16h1v1h-1zM14 16h1v1h-1zM16 16h1v1h-1zM19 16h1v1h-1zM20 16h1v1h-1zM24 16h1v1h-1zM27 16h1v1h-1zM32 16h1v1h-1zM35 16h1v1h-1zM38 16h1v1h-1zM43 16h1v1h-1zM44 16h1v1h-1zM4 17h1v1h-1zM6 17h1v1h-1zM8 17h1v1h-1zM16 17h1v1h-1zM17 17h1v1h-1zM19 17h1v1h-1zM20 17h1v1h-1zM23 17h1v1h-1zM28 17h1v1h-1zM29 17h1v1h-1zM30 17h1v1h-1zM32 17h1v1h-1zM34 17h1v1h-1zM35 17h1v1h-1zM36 17h1v1h-1zM37 17h1v1h-1zM38 17h1v1h-1zM40 17h1v1h-1zM44 17h1v1h-1zM4 18h1v1h-1zM6 18h1v1h-1zM7 18h1v1h-1zM10 18h1v1h-1zM12 18h1v1h-1zM13 18h1v1h-1zM15 18h1v1h-1zM16 18h1v1h-1zM18 18h1v1h-1zM20 18h1v1h-1zM21 18h1v1h-1zM22 18h1v1h-1zM25 18h1v1h-1zM29 18h1v1h-1zM32 18h1v1h-1zM33 18h1v1h-1zM34 18h1v1h-1zM35 18h1v1h-1zM36 18h1v1h-1zM41 18h1v1h-1zM44 18h1v1h-1zM8 19h1v1h-1zM9 19h1v1h-1zM12 19h1v1h-1zM13 19h1v1h-1zM14 19h1v1h-1zM19 19h1v1h-1zM22 19h1v1h-1zM23 19h1v1h-1zM26 19h1v1h-1zM28 19h1v1h-1zM31 19h1v1h-1zM34 19h1v1h-1zM36 19h1v1h-1zM37 19h1v1h-1zM39 19h1v1h-1zM42 19h1v1h-1zM43 19h1v1h-1zM4 20h1v1h-1zM5 20h1v1h-1zM6 20h1v1h-1zM7 20h1v1h-1zM8 20h1v1h-1zM10 20h1v1h-1zM11 20h1v1h-1zM12 20h1v1h-1zM15 20h1v1h-1zM18 20h1v1h-1zM20 20h1v1h-1zM22 20h1v1h-1zM23 20h1v1h-1zM24 20h1v1h-1zM26 20h1v1h-1zM27 20h1v1h-1zM28 20h1v1h-1zM29 20h1v1h-1zM32 20h1v1h-1zM34 20h1v1h-1zM36 20h1v1h-1zM37 20h1v1h-1zM39 20h1v1h-1zM43 20h1v1h-1zM5 21h1v1h-1zM6 21h1v1h-1zM7 21h1v1h-1zM11 21h1v1h-1zM13 21h1v1h-1zM14 21h1v1h-1zM15 21h1v1h-1zM18 21h1v1h-1zM19 21h1v1h-1zM23 21h1v1h-1zM26 21h1v1h-1zM29 21h1v1h-1zM30 21h1v1h-1zM31 21h1v1h-1zM32 21h1v1h-1zM33 21h1v1h-1zM34 21h1v1h-1zM36 21h1v1h-1zM39 21h1v1h-1zM40 21h1v1h-1zM41 21h1v1h-1zM5 22h1v1h-1zM6 22h1v1h-1zM10 22h1v1h-1zM12 22h1v1h-1zM13 22h1v1h-1zM14 22h1v1h-1zM15 22h1v1h-1zM17 22h1v1h-1zM18 22h1v1h-1zM19 22h1v1h-1zM20 22h1v1h-1zM23 22h1v1h-1zM24 22h1v1h-1zM25 22h1v1h-1zM26 22h1v1h-1zM27 22h1v1h-1zM28 22h1v1h-1zM31 22h1v1h-1zM32 22h1v1h-1zM33 22h1v1h-1zM34 22h1v1h-1zM35 22h1v1h-1zM39 22h1v1h-1zM42 22h1v1h-1zM44 22h1v1h-1zM4 23h1v1h-1zM5 23h1v1h-1zM7 23h1v1h-1zM8 23h1v1h-1zM11 23h1v1h-1zM12 23h1v1h-1zM13 23h1v1h-1zM17 23h1v1h-1zM20 23h1v1h-1zM21 23h1v1h-1zM22 23h1v1h-1zM26 23h1v1h-1zM30 23h1v1h-1zM31 23h1v1h-1zM32 23h1v1h-1zM35 23h1v1h-1zM36 23h1v1h-1zM37 23h1v1h-1zM42 23h1v1h-1zM44 23h1v1h-1zM4 24h1v1h-1zM5 24h1v1h-1zM6 24h1v1h-1zM10 24h1v1h-1zM11 24h1v1h-1zM12 24h1v1h-1zM13 24h1v1h-1zM14 24h1v1h-1zM17 24h1v1h-1zM24 24h1v1h-1zM25 24h1v1h-1zM26 24h1v1h-1zM29 24h1v1h-1zM30 24h1v1h-1zM32 24h1v1h-1zM34 24h1v1h-1zM38 24h1v1h-1zM42 24h1v1h-1zM43 24h1v1h-1zM44 24h1v1h-1zM5 25h1v1h-1zM8 25h1v1h-1zM12 25h1v1h-1zM13 25h1v1h-1zM14 25h1v1h-1zM15 25h1v1h-1zM16 25h1v1h-1zM17 25h1v1h-1zM18 25h1v1h-1zM19 25h1v1h-1zM20 25h1v1h-1zM22 25h1v1h-1zM23 25h1v1h-1zM27 25h1v1h-1zM28 25h1v1h-1zM29 25h1v1h-1zM30 25h1v1h-1zM31 25h1v1h-1zM33 25h1v1h-1zM35 25h1v1h-1zM38 25h1v1h-1zM39 25h1v1h-1zM40 25h1v1h-1zM43 25h1v1h-1zM4 26h1v1h-1zM7 26h1v1h-1zM8 26h1v1h-1zM10 26h1v1h-1zM13 26h1v1h-1zM17 26h1v1h-1zM18 26h1v1h-1zM21 26h1v1h-1zM22 26h1v1h-1zM25 26h1v1h-1zM27 26h1v1h-1zM28 26h1v1h-1zM29 26h1v1h-1zM31 26h1v1h-1zM32 26h1v1h-1zM40 26h1v1h-1zM41 26h1v1h-1zM42 26h1v1h-1zM6 27h1v1h-1zM8 27h1v1h-1zM9 27h1v1h-1zM11 27h1v1h-1zM13 27h1v1h-1zM15 27h1v1h-1zM21 27h1v1h-1zM22 27h1v1h-1zM24 27h1v1h-1zM28 27h1v1h-1zM32 27h1v1h-1zM33 27h1v1h-1zM37 27h1v1h-1zM38 27h1v1h-1zM40 27h1v1h-1zM41 27h1v1h-1zM4 28h1v1h-1zM9 28h1v1h-1zM10 28h1v1h-1zM16 28h1v1h-1zM17 28h1v1h-1zM19 28h1v1h-1zM20 28h1v1h-1zM23 28h1v1h-1zM24 28h1v1h-1zM27 28h1v1h-1zM35 28h1v1h-1zM36 28h1v1h-1zM37 28h1v1h-1zM38 28h1v1h-1zM39 28h1v1h-1zM41 28h1v1h-1zM44 28h1v1h-1zM4 29h1v1h-1zM5 29h1v1h-1zM6 29h1v1h-1zM8 29h1v1h-1zM11 29h1v1h-1zM12 29h1v1h-1zM13 29h1v1h-1zM14 29h1v1h-1zM16 29h1v1h-1zM19 29h1v1h-1zM25 29h1v1h-1zM27 29h1v1h-1zM30 29h1v1h-1zM31 29h1v1h-1zM33 29h1v1h-1zM37 29h1v1h-1zM38 29h1v1h-1zM39 29h1v1h-1zM40 29h1v1h-1zM41 29h1v1h-1zM42 29h1v1h-1zM44 29h1v1h-1zM8 30h1v1h-1zM9 30h1v1h-1zM10 30h1v1h-1zM13 30h1v1h-1zM14 30h1v1h-1zM16 30h1v1h-1zM17 30h1v1h-1zM19 30h1v1h-1zM20 30h1v1h-1zM21 30h1v1h-1zM22 30h1v1h-1zM23 30h1v1h-1zM24 30h1v1h-1zM28 30h1v1h-1zM29 30h1v1h-1zM31 30h1v1h-1zM34 30h1v1h-1zM35 30h1v1h-1zM38 30h1v1h-1zM41 30h1v1h-1zM44 30h1v1h-1zM4 31h1v1h-1zM5 31h1v1h-1zM9 31h1v1h-1zM11 31h1v1h-1zM14 31h1v1h-1zM18 31h1v1h-1zM20 31h1v1h-1zM22 31h1v1h-1zM23 31h1v1h-1zM24 31h1v1h-1zM26 31h1v1h-1zM27 31h1v1h-1zM32 31h1v1h-1zM34 31h1v1h-1zM36 31h1v1h-1zM38 31h1v1h-1zM39 31h1v1h-1zM40 31h1v1h-1zM41 31h1v1h-1zM42 31h1v1h-1zM44 31h1v1h-1zM4 32h1v1h-1zM6 32h1v1h-1zM7 32h1v1h-1zM8 32h1v1h-1zM9 32h1v1h-1zM10 32h1v1h-1zM26 32h1v1h-1zM28 32h1v1h-1zM29 32h1v1h-1zM30 32h1v1h-1zM31 32h1v1h-1zM32 32h1v1h-1zM36 32h1v1h-1zM37 32h1v1h-1zM39 32h1v1h-1zM43 32h1v1h-1zM4 33h1v1h-1zM5 33h1v1h-1zM6 33h1v1h-1zM8 33h1v1h-1zM9 33h1v1h-1zM12 33h1v1h-1zM13 33h1v1h-1zM14 33h1v1h-1zM16 33h1v1h-1zM17 33h1v1h-1zM18 33h1v1h-1zM19 33h1v1h-1zM21 33h1v1h-1zM22 33h1v1h-1zM25 33h1v1h-1zM27 33h1v1h-1zM32 33h1v1h-1zM33 33h1v1h-1zM34 33h1v1h-1zM36 33h1v1h-1zM38 33h1v1h-1zM40 33h1v1h-1zM41 33h1v1h-1zM43 33h1v1h-1zM4 34h1v1h-1zM5 34h1v1h-1zM7 34h1v1h-1zM8 34h1v1h-1zM10 34h1v1h-1zM13 34h1v1h-1zM14 34h1v1h-1zM15 34h1v1h-1zM16 34h1v1h-1zM21 34h1v1h-1zM22 34h1v1h-1zM23 34h1v1h-1zM25 34h1v1h-1zM26 34h1v1h-1zM28 34h1v1h-1zM29 34h1v1h-1zM31 34h1v1h-1zM36 34h1v1h-1zM39 34h1v1h-1zM40 34h1v1h-1zM41 34h1v1h-1zM44 34h1v1h-1zM4 35h1v1h-1zM5 35h1v1h-1zM6 35h1v1h-1zM7 35h1v1h-1zM9 35h1v1h-1zM12 35h1v1h-1zM13 35h1v1h-1zM15 35h1v1h-1zM22 35h1v1h-1zM23 35h1v1h-1zM24 35h1v1h-1zM26 35h1v1h-1zM27 35h1v1h-1zM29 35h1v1h-1zM34 35h1v1h-1zM37 35h1v1h-1zM38 35h1v1h-1zM40 35h1v1h-1zM42 35h1v1h-1zM43 35h1v1h-1zM4 36h1v1h-1zM5 36h1v1h-1zM9 36h1v1h-1zM10 36h1v1h-1zM11 36h1v1h-1zM13 36h1v1h-1zM14 36h1v1h-1zM15 36h1v1h-1zM17 36h1v1h-1zM23 36h1v1h-1zM27 36h1v1h-1zM30 36h1v1h-1zM31 36h1v1h-1zM32 36h1v1h-1zM33 36h1v1h-1zM36 36h1v1h-1zM37 36h1v1h-1zM38 36h1v1h-1zM39 36h1v1h-1zM40 36h1v1h-1zM42 36h1v1h-1zM43 36h1v1h-1zM12 37h1v1h-1zM13 37h1v1h-1zM15 37h1v1h-1zM17 37h1v1h-1zM19 37h1v1h-1zM23 37h1v1h-1zM25 37h1v1h-1zM26 37h1v1h-1zM27 37h1v1h-1zM30 37h1v1h-1zM31 37h1v1h-1zM33 37h1v1h-1zM36 37h1v1h-1zM40 37h1v1h-1zM42 37h1v1h-1zM4 38h1v1h-1zM5 38h1v1h-1zM6 38h1v1h-1zM7 38h1v1h-1zM8 38h1v1h-1zM9 38h1v1h-1zM10 38h1v1h-1zM12 38h1v1h-1zM14 38h1v1h-1zM15 38h1v1h-1zM21 38h1v1h-1zM22 38h1v1h-1zM26 38h1v1h-1zM27 38h1v1h-1zM30 38h1v1h-1zM31 38h1v1h-1zM36 38h1v1h-1zM38 38h1v1h-1zM40 38h1v1h-1zM41 38h1v1h-1zM4 39h1v1h-1zM10 39h1v1h-1zM12 39h1v1h-1zM14 39h1v1h-1zM15 39h1v1h-1zM16 39h1v1h-1zM19 39h1v1h-1zM21 39h1v1h-1zM23 39h1v1h-1zM24 39h1v1h-1zM25 39h1v1h-1zM26 39h1v1h-1zM30 39h1v1h-1zM34 39h1v1h-1zM35 39h1v1h-1zM36 39h1v1h-1zM40 39h1v1h-1zM43 39h1v1h-1zM44 39h1v1h-1zM4 40h1v1h-1zM6 40h1v1h-1zM7 40h1v1h-1zM8 40h1v1h-1zM10 40h1v1h-1zM12 40h1v1h-1zM13 40h1v1h-1zM15 40h1v1h-1zM17 40h1v1h-1zM20 40h1v1h-1zM21 40h1v1h-1zM22 40h1v1h-1zM24 40h1v1h-1zM25 40h1v1h-1zM29 40h1v1h-1zM30 40h1v1h-1zM31 40h1v1h-1zM33 40h1v1h-1zM35 40h1v1h-1zM36 40h1v1h-1zM37 40h1v1h-1zM38 40h1v1h-1zM39 40h1v1h-1zM40 40h1v1h-1zM41 40h1v1h-1zM43 40h1v1h-1zM4 41h1v1h-1zM6 41h1v1h-1zM7 41h1v1h-1zM8 41h1v1h-1zM10 41h1v1h-1zM12 41h1v1h-1zM13 41h1v1h-1zM14 41h1v1h-1zM15 41h1v1h-1zM19 41h1v1h-1zM21 41h1v1h-1zM25 41h1v1h-1zM27 41h1v1h-1zM28 41h1v1h-1zM29 41h1v1h-1zM31 41h1v1h-1zM32 41h1v1h-1zM34 41h1v1h-1zM36 41h1v1h-1zM37 41h1v1h-1zM39 41h1v1h-1zM43 41h1v1h-1zM4 42h1v1h-1zM6 42h1v1h-1zM7 42h1v1h-1zM8 42h1v1h-1zM10 42h1v1h-1zM13 42h1v1h-1zM18 42h1v1h-1zM21 42h1v1h-1zM22 42h1v1h-1zM23 42h1v1h-1zM29 42h1v1h-1zM30 42h1v1h-1zM31 42h1v1h-1zM34 42h1v1h-1zM36 42h1v1h-1zM40 42h1v1h-1zM44 42h1v1h-1zM4 43h1v1h-1zM10 43h1v1h-1zM14 43h1v1h-1zM22 43h1v1h-1zM26 43h1v1h-1zM32 43h1v1h-1zM34 43h1v1h-1zM37 43h1v1h-1zM38 43h1v1h-1zM39 43h1v1h-1zM40 43h1v1h-1zM41 43h1v1h-1zM42 43h1v1h-1zM44 43h1v1h-1zM4 44h1v1h-1zM5 44h1v1h-1zM6 44h1v1h-1zM7 44h1v1h-1zM8 44h1v1h-1zM9 44h1v1h-1zM10 44h1v1h-1zM12 44h1v1h-1zM19 44h1v1h-1zM20 44h1v1h-1zM21 44h1v1h-1zM24 44h1v1h-1zM26 44h1v1h-1zM27 44h1v1h-1zM28 44h1v1h-1zM29 44h1v1h-1zM31 44h1v1h-1zM35 44h1v1h-1zM36 44h1v1h-1zM37 44h1v1h-1zM39 44h1v1h-1z" fill="#000"/>
</svg>
