<svg xmlns="http://www.w3.org/2000/svg" viewBox="0 0 49 49" shape-rendering="crispEdges">
<title>Fixed ₹10,000 booking advance UPI QR</title>
<desc>upi://pay?pa=d.entranchi@ybl&amp;pn=Dakshayani%20Enterprises&amp;am=10000.00&amp;cu=INR&amp;tn=Booking%20Advance</desc>
<rect width="100%" height="100%" fill="#fff"/><path d="M4 4h1v1h-1zM5 4h1v1h-1zM6 4h1v1h-1zM7 4h1v1h-1zM8 4h1v1h-1zM9 4h1v1h-1zM10 4h1v1h-1zM14 4h1v1h-1zM20 4h1v1h-1zM22 4h1v1h-1zM23 4h1v1h-1zM25 4h1v1h-1zM26 4h1v1h-1zM29 4h1v1h-1zM31 4h1v1h-1zM32 4h1v1h-1zM35 4h1v1h-1zM36 4h1v1h-1zM38 4h1v1h-1zM39 4h1v1h-1zM40 4h1v1h-1zM41 4h1v1h-1zM42 4h1v1h-1zM43 4h1v1h-1zM44 4h1v1h-1zM4 5h1v1h-1zM10 5h1v1h-1zM13 5h1v1h-1zM16 5h1v1h-1zM21 5h1v1h-1zM27 5h1v1h-1zM28 5h1v1h-1zM29 5h1v1h-1zM30 5h1v1h-1zM31 5h1v1h-1zM32 5h1v1h-1zM33 5h1v1h-1zM38 5h1v1h-1zM44 5h1v1h-1zM4 6h1v1h-1zM6 6h1v1h-1zM7 6h1v1h-1zM8 6h1v1h-1zM10 6h1v1h-1zM13 6h1v1h-1zM14 6h1v1h-1zM15 6h1v1h-1zM16 6h1v1h-1zM18 6h1v1h-1zM20 6h1v1h-1zM21 6h1v1h-1zM24 6h1v1h-1zM25 6h1v1h-1zM26 6h1v1h-1zM27 6h1v1h-1zM32 6h1v1h-1zM33 6h1v1h-1zM34 6h1v1h-1zM38 6h1v1h-1zM40 6h1v1h-1zM41 6h1v1h-1zM42 6h1v1h-1zM44 6h1v1h-1zM4 7h1v1h-1zM6 7h1v1h-1zM7 7h1v1h-1zM8 7h1v1h-1zM10 7h1v1h-1zM13 7h1v1h-1zM15 7h1v1h-1zM16 7h1v1h-1zM17 7h1v1h-1zM19 7h1v1h-1zM21 7h1v1h-1zM23 7h1v1h-1zM24 7h1v1h-1zM25 7h1v1h-1zM26 7h1v1h-1zM30 7h1v1h-1zM31 7h1v1h-1zM33 7h1v1h-1zM34 7h1v1h-1zM35 7h1v1h-1zM36 7h1v1h-1zM38 7h1v1h-1zM40 7h1v1h-1zM41 7h1v1h-1zM42 7h1v1h-1zM44 7h1v1h-1zM4 8h1v1h-1zM6 8h1v1h-1zM7 8h1v1h-1zM8 8h1v1h-1zM10 8h1v1h-1zM14 8h1v1h-1zM15 8h1v1h-1zM16 8h1v1h-1zM20 8h1v1h-1zM21 8h1v1h-1zM29 8h1v1h-1zM30 8h1v1h-1zM31 8h1v1h-1zM32 8h1v1h-1zM33 8h1v1h-1zM34 8h1v1h-1zM38 8h1v1h-1zM40 8h1v1h-1zM41 8h1v1h-1zM42 8h1v1h-1zM44 8h1v1h-1zM4 9h1v1h-1zM10 9h1v1h-1zM12 9h1v1h-1zM13 9h1v1h-1zM16 9h1v1h-1zM17 9h1v1h-1zM23 9h1v1h-1zM24 9h1v1h-1zM29 9h1v1h-1zM31 9h1v1h-1zM32 9h1v1h-1zM35 9h1v1h-1zM38 9h1v1h-1zM44 9h1v1h-1zM4 10h1v1h-1zM5 10h1v1h-1zM6 10h1v1h-1zM7 10h1v1h-1zM8 10h1v1h-1zM9 10h1v1h-1zM10 10h1v1h-1zM12 10h1v1h-1zM14 10h1v1h-1zM16 10h1v1h-1zM18 10h1v1h-1zM20 10h1v1h-1zM22 10h1v1h-1zM24 10h1v1h-1zM26 10h1v1h-1zM28 10h1v1h-1zM30 10h1v1h-1zM32 10h1v1h-1zM34 10h1v1h-1zM36 10h1v1h-1zM38 10h1v1h-1zM39 10h1v1h-1zM40 10h1v1h-1zM41 10h1v1h-1zM42 10h1v1h-1zM43 10h1v1h-1zM44 10h1v1h-1zM14 11h1v1h-1zM15 11h1v1h-1zM16 11h1v1h-1zM18 11h1v1h-1zM21 11h1v1h-1zM22 11h1v1h-1zM23 11h1v1h-1zM25 11h1v1h-1zM26 11h1v1h-1zM27 11h1v1h-1zM31 11h1v1h-1zM32 11h1v1h-1zM33 11h1v1h-1zM34 11h1v1h-1zM35 11h1v1h-1zM4 12h1v1h-1zM7 12h1v1h-1zM9 12h1v1h-1zM10 12h1v1h-1zM12 12h1v1h-1zM13 12h1v1h-1zM14 12h1v1h-1zM15 12h1v1h-1zM16 12h1v1h-1zM18 12h1v1h-1zM19 12h1v1h-1zM20 12h1v1h-1zM21 12h1v1h-1zM25 12h1v1h-1zM27 12h1v1h-1zM29 12h1v1h-1zM32 12h1v1h-1zM34 12h1v1h-1zM35 12h1v1h-1zM36 12h1v1h-1zM37 12h1v1h-1zM39 12h1v1h-1zM4 13h1v1h-1zM6 13h1v1h-1zM8 13h1v1h-1zM9 13h1v1h-1zM13 13h1v1h-1zM17 13h1v1h-1zM19 13h1v1h-1zM20 13h1v1h-1zM21 13h1v1h-1zM24 13h1v1h-1zM25 13h1v1h-1zM28 13h1v1h-1zM32 13h1v1h-1zM33 13h1v1h-1zM34 13h1v1h-1zM36 13h1v1h-1zM37 13h1v1h-1zM38 13h1v1h-1zM43 13h1v1h-1zM44 13h1v1h-1zM6 14h1v1h-1zM7 14h1v1h-1zM8 14h1v1h-1zM10 14h1v1h-1zM11 14h1v1h-1zM12 14h1v1h-1zM13 14h1v1h-1zM14 14h1v1h-1zM15 14h1v1h-1zM17 14h1v1h-1zM18 14h1v1h-1zM22 14h1v1h-1zM23 14h1v1h-1zM24 14h1v1h-1zM26 14h1v1h-1zM28 14h1v1h-1zM32 14h1v1h-1zM33 14h1v1h-1zM34 14h1v1h-1zM35 14h1v1h-1zM37 14h1v1h-1zM38 14h1v1h-1zM39 14h1v1h-1zM40 14h1v1h-1zM42 14h1v1h-1zM43 14h1v1h-1zM5 15h1v1h-1zM6 15h1v1h-1zM7 15h1v1h-1zM9 15h1v1h-1zM12 15h1v1h-1zM14 15h1v1h-1zM15 15h1v1h-1zM16 15h1v1h-1zM17 15h1v1h-1zM23 15h1v1h-1zM24 15h1v1h-1zM25 15h1v1h-1zM26 15h1v1h-1zM28 15h1v1h-1zM29 15h1v1h-1zM30 15h1v1h-1zM31 15h1v1h-1zM32 15h1v1h-1zM34 15h1v1h-1zM35 15h1v1h-1zM36 15h1v1h-1zM37 15h1v1h-1zM38 15h1v1h-1zM42 15h1v1h-1zM44 15h1v1h-1zM5 16h1v1h-1zM8 16h1v1h-1zM10 16h1v1h-1zM12 16h1v1h-1zM13 16h1v1h-1zM14 16h1v1h-1zM15 16h1v1h-1zM16 16h1v1h-1zM17 16h1v1h-1zM21 16h1v1h-1zM23 16h1v1h-1zM24 16h1v1h-1zM25 16h1v1h-1zM29 16h1v1h-1zM31 16h1v1h-1zM32 16h1v1h-1zM33 16h1v1h-1zM37 16h1v1h-1zM38 16h1v1h-1zM39 16h1v1h-1zM41 16h1v1h-1zM43 16h1v1h-1zM4 17h1v1h-1zM7 17h1v1h-1zM8 17h1v1h-1zM11 17h1v1h-1zM12 17h1v1h-1zM14 17h1v1h-1zM15 17h1v1h-1zM18 17h1v1h-1zM19 17h1v1h-1zM20 17h1v1h-1zM22 17h1v1h-1zM24 17h1v1h-1zM26 17h1v1h-1zM27 17h1v1h-1zM33 17h1v1h-1zM35 17h1v1h-1zM37 17h1v1h-1zM39 17h1v1h-1zM41 17h1v1h-1zM42 17h1v1h-1zM43 17h1v1h-1zM6 18h1v1h-1zM10 18h1v1h-1zM11 18h1v1h-1zM12 18h1v1h-1zM15 18h1v1h-1zM17 18h1v1h-1zM18 18h1v1h-1zM19 18h1v1h-1zM23 18h1v1h-1zM26 18h1v1h-1zM27 18h1v1h-1zM33 18h1v1h-1zM34 18h1v1h-1zM37 18h1v1h-1zM39 18h1v1h-1zM43 18h1v1h-1zM44 18h1v1h-1zM6 19h1v1h-1zM7 19h1v1h-1zM9 19h1v1h-1zM11 19h1v1h-1zM13 19h1v1h-1zM16 19h1v1h-1zM21 19h1v1h-1zM24 19h1v1h-1zM25 19h1v1h-1zM26 19h1v1h-1zM27 19h1v1h-1zM29 19h1v1h-1zM31 19h1v1h-1zM33 19h1v1h-1zM38 19h1v1h-1zM40 19h1v1h-1zM41 19h1v1h-1zM44 19h1v1h-1zM4 20h1v1h-1zM6 20h1v1h-1zM8 20h1v1h-1zM10 20h1v1h-1zM12 20h1v1h-1zM13 20h1v1h-1zM14 20h1v1h-1zM19 20h1v1h-1zM20 20h1v1h-1zM21 20h1v1h-1zM22 20h1v1h-1zM26 20h1v1h-1zM30 20h1v1h-1zM32 20h1v1h-1zM33 20h1v1h-1zM34 20h1v1h-1zM35 20h1v1h-1zM41 20h1v1h-1zM4 21h1v1h-1zM7 21h1v1h-1zM8 21h1v1h-1zM18 21h1v1h-1zM19 21h1v1h-1zM20 21h1v1h-1zM21 21h1v1h-1zM22 21h1v1h-1zM25 21h1v1h-1zM27 21h1v1h-1zM29 21h1v1h-1zM30 21h1v1h-1zM34 21h1v1h-1zM36 21h1v1h-1zM37 21h1v1h-1zM38 21h1v1h-1zM42 21h1v1h-1zM43 21h1v1h-1zM44 21h1v1h-1zM9 22h1v1h-1zM10 22h1v1h-1zM12 22h1v1h-1zM14 22h1v1h-1zM15 22h1v1h-1zM17 22h1v1h-1zM18 22h1v1h-1zM19 22h1v1h-1zM20 22h1v1h-1zM21 22h1v1h-1zM24 22h1v1h-1zM26 22h1v1h-1zM29 22h1v1h-1zM30 22h1v1h-1zM32 22h1v1h-1zM34 22h1v1h-1zM37 22h1v1h-1zM41 22h1v1h-1zM42 22h1v1h-1zM43 22h1v1h-1zM44 22h1v1h-1zM7 23h1v1h-1zM9 23h1v1h-1zM11 23h1v1h-1zM12 23h1v1h-1zM13 23h1v1h-1zM17 23h1v1h-1zM20 23h1v1h-1zM23 23h1v1h-1zM24 23h1v1h-1zM25 23h1v1h-1zM27 23h1v1h-1zM28 23h1v1h-1zM30 23h1v1h-1zM33 23h1v1h-1zM34 23h1v1h-1zM38 23h1v1h-1zM39 23h1v1h-1zM40 23h1v1h-1zM41 23h1v1h-1zM43 23h1v1h-1zM4 24h1v1h-1zM6 24h1v1h-1zM9 24h1v1h-1zM10 24h1v1h-1zM17 24h1v1h-1zM19 24h1v1h-1zM21 24h1v1h-1zM24 24h1v1h-1zM26 24h1v1h-1zM27 24h1v1h-1zM29 24h1v1h-1zM30 24h1v1h-1zM31 24h1v1h-1zM32 24h1v1h-1zM37 24h1v1h-1zM38 24h1v1h-1zM39 24h1v1h-1zM41 24h1v1h-1zM42 24h1v1h-1zM44 24h1v1h-1zM9 25h1v1h-1zM11 25h1v1h-1zM21 25h1v1h-1zM24 25h1v1h-1zM25 25h1v1h-1zM26 25h1v1h-1zM32 25h1v1h-1zM36 25h1v1h-1zM37 25h1v1h-1zM42 25h1v1h-1zM44 25h1v1h-1zM4 26h1v1h-1zM6 26h1v1h-1zM7 26h1v1h-1zM10 26h1v1h-1zM14 26h1v1h-1zM15 26h1v1h-1zM17 26h1v1h-1zM18 26h1v1h-1zM19 26h1v1h-1zM22 26h1v1h-1zM23 26h1v1h-1zM28 26h1v1h-1zM32 26h1v1h-1zM33 26h1v1h-1zM35 26h1v1h-1zM37 26h1v1h-1zM38 26h1v1h-1zM39 26h1v1h-1zM40 26h1v1h-1zM43 26h1v1h-1zM5 27h1v1h-1zM6 27h1v1h-1zM13 27h1v1h-1zM16 27h1v1h-1zM17 27h1v1h-1zM19 27h1v1h-1zM20 27h1v1h-1zM23 27h1v1h-1zM25 27h1v1h-1zM26 27h1v1h-1zM27 27h1v1h-1zM29 27h1v1h-1zM30 27h1v1h-1zM31 27h1v1h-1zM34 27h1v1h-1zM35 27h1v1h-1zM36 27h1v1h-1zM40 27h1v1h-1zM42 27h1v1h-1zM43 27h1v1h-1zM5 28h1v1h-1zM7 28h1v1h-1zM10 28h1v1h-1zM11 28h1v1h-1zM12 28h1v1h-1zM15 28h1v1h-1zM17 28h1v1h-1zM18 28h1v1h-1zM21 28h1v1h-1zM24 28h1v1h-1zM25 28h1v1h-1zM29 28h1v1h-1zM31 28h1v1h-1zM33 28h1v1h-1zM36 28h1v1h-1zM38 28h1v1h-1zM44 28h1v1h-1zM5 29h1v1h-1zM9 29h1v1h-1zM11 29h1v1h-1zM12 29h1v1h-1zM15 29h1v1h-1zM17 29h1v1h-1zM18 29h1v1h-1zM21 29h1v1h-1zM22 29h1v1h-1zM23 29h1v1h-1zM24 29h1v1h-1zM26 29h1v1h-1zM28 29h1v1h-1zM29 29h1v1h-1zM32 29h1v1h-1zM34 29h1v1h-1zM35 29h1v1h-1zM36 29h1v1h-1zM43 29h1v1h-1zM4 30h1v1h-1zM6 30h1v1h-1zM10 30h1v1h-1zM14 30h1v1h-1zM15 30h1v1h-1zM16 30h1v1h-1zM19 30h1v1h-1zM20 30h1v1h-1zM22 30h1v1h-1zM24 30h1v1h-1zM25 30h1v1h-1zM27 30h1v1h-1zM28 30h1v1h-1zM33 30h1v1h-1zM34 30h1v1h-1zM37 30h1v1h-1zM38 30h1v1h-1zM39 30h1v1h-1zM43 30h1v1h-1zM44 30h1v1h-1zM4 31h1v1h-1zM8 31h1v1h-1zM11 31h1v1h-1zM12 31h1v1h-1zM13 31h1v1h-1zM17 31h1v1h-1zM21 31h1v1h-1zM25 31h1v1h-1zM28 31h1v1h-1zM29 31h1v1h-1zM30 31h1v1h-1zM31 31h1v1h-1zM33 31h1v1h-1zM35 31h1v1h-1zM38 31h1v1h-1zM43 31h1v1h-1zM44 31h1v1h-1zM5 32h1v1h-1zM6 32h1v1h-1zM9 32h1v1h-1zM10 32h1v1h-1zM13 32h1v1h-1zM17 32h1v1h-1zM19 32h1v1h-1zM21 32h1v1h-1zM23 32h1v1h-1zM25 32h1v1h-1zM26 32h1v1h-1zM27 32h1v1h-1zM28 32h1v1h-1zM30 32h1v1h-1zM33 32h1v1h-1zM35 32h1v1h-1zM41 32h1v1h-1zM5 33h1v1h-1zM7 33h1v1h-1zM8 33h1v1h-1zM11 33h1v1h-1zM13 33h1v1h-1zM16 33h1v1h-1zM17 33h1v1h-1zM19 33h1v1h-1zM21 33h1v1h-1zM23 33h1v1h-1zM24 33h1v1h-1zM26 33h1v1h-1zM28 33h1v1h-1zM29 33h1v1h-1zM30 33h1v1h-1zM32 33h1v1h-1zM36 33h1v1h-1zM37 33h1v1h-1zM38 33h1v1h-1zM39 33h1v1h-1zM42 33h1v1h-1zM44 33h1v1h-1zM4 34h1v1h-1zM10 34h1v1h-1zM11 34h1v1h-1zM15 34h1v1h-1zM19 34h1v1h-1zM20 34h1v1h-1zM25 34h1v1h-1zM27 34h1v1h-1zM28 34h1v1h-1zM29 34h1v1h-1zM32 34h1v1h-1zM34 34h1v1h-1zM37 34h1v1h-1zM40 34h1v1h-1zM43 34h1v1h-1zM44 34h1v1h-1zM8 35h1v1h-1zM11 35h1v1h-1zM14 35h1v1h-1zM15 35h1v1h-1zM16 35h1v1h-1zM20 35h1v1h-1zM21 35h1v1h-1zM22 35h1v1h-1zM25 35h1v1h-1zM26 35h1v1h-1zM28 35h1v1h-1zM33 35h1v1h-1zM36 35h1v1h-1zM39 35h1v1h-1zM41 35h1v1h-1zM44 35h1v1h-1zM4 36h1v1h-1zM8 36h1v1h-1zM10 36h1v1h-1zM12 36h1v1h-1zM13 36h1v1h-1zM14 36h1v1h-1zM17 36h1v1h-1zM18 36h1v1h-1zM20 36h1v1h-1zM21 36h1v1h-1zM29 36h1v1h-1zM30 36h1v1h-1zM32 36h1v1h-1zM34 36h1v1h-1zM36 36h1v1h-1zM37 36h1v1h-1zM38 36h1v1h-1zM39 36h1v1h-1zM40 36h1v1h-1zM41 36h1v1h-1zM42 36h1v1h-1zM12 37h1v1h-1zM13 37h1v1h-1zM14 37h1v1h-1zM17 37h1v1h-1zM18 37h1v1h-1zM21 37h1v1h-1zM26 37h1v1h-1zM28 37h1v1h-1zM29 37h1v1h-1zM33 37h1v1h-1zM34 37h1v1h-1zM36 37h1v1h-1zM40 37h1v1h-1zM41 37h1v1h-1zM43 37h1v1h-1zM44 37h1v1h-1zM4 38h1v1h-1zM5 38h1v1h-1zM6 38h1v1h-1zM7 38h1v1h-1zM8 38h1v1h-1zM9 38h1v1h-1zM10 38h1v1h-1zM14 38h1v1h-1zM15 38h1v1h-1zM16 38h1v1h-1zM18 38h1v1h-1zM20 38h1v1h-1zM22 38h1v1h-1zM23 38h1v1h-1zM24 38h1v1h-1zM25 38h1v1h-1zM26 38h1v1h-1zM29 38h1v1h-1zM36 38h1v1h-1zM38 38h1v1h-1zM40 38h1v1h-1zM43 38h1v1h-1zM4 39h1v1h-1zM10 39h1v1h-1zM12 39h1v1h-1zM13 39h1v1h-1zM15 39h1v1h-1zM22 39h1v1h-1zM24 39h1v1h-1zM27 39h1v1h-1zM29 39h1v1h-1zM31 39h1v1h-1zM35 39h1v1h-1zM36 39h1v1h-1zM40 39h1v1h-1zM41 39h1v1h-1zM42 39h1v1h-1zM4 40h1v1h-1zM6 40h1v1h-1zM7 40h1v1h-1zM8 40h1v1h-1zM10 40h1v1h-1zM15 40h1v1h-1zM18 40h1v1h-1zM19 40h1v1h-1zM20 40h1v1h-1zM22 40h1v1h-1zM24 40h1v1h-1zM30 40h1v1h-1zM33 40h1v1h-1zM36 40h1v1h-1zM37 40h1v1h-1zM38 40h1v1h-1zM39 40h1v1h-1zM40 40h1v1h-1zM4 41h1v1h-1zM6 41h1v1h-1zM7 41h1v1h-1zM8 41h1v1h-1zM10 41h1v1h-1zM12 41h1v1h-1zM14 41h1v1h-1zM16 41h1v1h-1zM17 41h1v1h-1zM18 41h1v1h-1zM20 41h1v1h-1zM21 41h1v1h-1zM22 41h1v1h-1zM23 41h1v1h-1zM24 41h1v1h-1zM26 41h1v1h-1zM33 41h1v1h-1zM34 41h1v1h-1zM35 41h1v1h-1zM38 41h1v1h-1zM40 41h1v1h-1zM42 41h1v1h-1zM43 41h1v1h-1zM4 42h1v1h-1zM6 42h1v1h-1zM7 42h1v1h-1zM8 42h1v1h-1zM10 42h1v1h-1zM15 42h1v1h-1zM17 42h1v1h-1zM18 42h1v1h-1zM19 42h1v1h-1zM21 42h1v1h-1zM25 42h1v1h-1zM27 42h1v1h-1zM30 42h1v1h-1zM33 42h1v1h-1zM34 42h1v1h-1zM35 42h1v1h-1zM36 42h1v1h-1zM37 42h1v1h-1zM39 42h1v1h-1zM40 42h1v1h-1zM41 42h1v1h-1zM42 42h1v1h-1zM43 42h1v1h-1zM44 42h1v1h-1zM4 43h1v1h-1zM10 43h1v1h-1zM14 43h1v1h-1zM15 43h1v1h-1zM16 43h1v1h-1zM19 43h1v1h-1zM20 43h1v1h-1zM21 43h1v1h-1zM22 43h1v1h-1zM23 43h1v1h-1zM24 43h1v1h-1zM25 43h1v1h-1zM27 43h1v1h-1zM28 43h1v1h-1zM29 43h1v1h-1zM30 43h1v1h-1zM31 43h1v1h-1zM33 43h1v1h-1zM35 43h1v1h-1zM36 43h1v1h-1zM43 43h1v1h-1zM4 44h1v1h-1zM5 44h1v1h-1zM6 44h1v1h-1zM7 44h1v1h-1zM8 44h1v1h-1zM9 44h1v1h-1zM10 44h1v1h-1zM12 44h1v1h-1zM15 44h1v1h-1zM17 44h1v1h-1zM21 44h1v1h-1zM23 44h1v1h-1zM24 44h1v1h-1zM25 44h1v1h-1zM26 44h1v1h-1zM28 44h1v1h-1zM33 44h1v1h-1zM36 44h1v1h-1zM41 44h1v1h-1zM43 44h1v1h-1z" fill="#000"/>
</svg>
